<mxfile host="app.diagrams.net" modified="2024-05-28T14:05:03.331Z" agent="Mozilla/5.0 (Windows NT 10.0; Win64; x64) AppleWebKit/537.36 (KHTML, like Gecko) Chrome/125.0.0.0 Safari/537.36" version="24.4.6" etag="8Gh-hxJcmdldsYE4RRfL" type="github">
  <diagram name="PÃ¡gina-1" id="a3jpeLFk8HwBIxia5Zfv">
    <mxGraphModel>
      <root>
        <mxCell id="0" />
        <mxCell id="1" parent="0" />
      </root>
    </mxGraphModel>
  </diagram>
</mxfile>
